<svg width="65" height="65" viewBox="0 0 65 65" fill="none" xmlns="http://www.w3.org/2000/svg">
<rect width="65" height="65" rx="32.5" fill="#BFEBE4" fill-opacity="0.3"/>
<path d="M43 28L41.125 23.875L37 22L41.125 20.125L43 16L44.875 20.125L49 22L44.875 23.875L43 28ZM43 49L41.125 44.875L37 43L41.125 41.125L43 37L44.875 41.125L49 43L44.875 44.875L43 49ZM28 44.5L24.25 36.25L16 32.5L24.25 28.75L28 20.5L31.75 28.75L40 32.5L31.75 36.25L28 44.5ZM28 37.225L29.5 34L32.725 32.5L29.5 31L28 27.775L26.5 31L23.275 32.5L26.5 34L28 37.225Z" fill="#3C6660"/>
</svg>
