<svg width="529" height="543" viewBox="0 0 529 543" fill="none" xmlns="http://www.w3.org/2000/svg">
<rect x="44" width="478.667" height="478.667" rx="48" fill="url(#paint0_linear_135_248)"/>
<foreignObject x="56" y="12" width="462.66" height="454.667"><div xmlns="http://www.w3.org/1999/xhtml" style="backdrop-filter:blur(10px);clip-path:url(#bgblur_0_135_248_clip_path);height:100%;width:100%"></div></foreignObject><g data-figma-bg-blur-radius="20">
<rect x="76" y="32" width="414.667" height="414.667" rx="32" fill="white" fill-opacity="0.7"/>
<g filter="url(#filter1_d_135_248)">
<rect x="76" y="32" width="414.66" height="414.66" rx="32" fill="white" fill-opacity="0.01" shape-rendering="crispEdges"/>
</g>
<rect x="100" y="56" width="122.22" height="16" rx="8" fill="#3C6660" fill-opacity="0.2"/>
<g filter="url(#filter2_d_135_248)">
<rect width="366.66" height="48" transform="translate(100 88)" fill="white"/>
<rect x="117" y="103" width="18" height="18" rx="9" stroke="#3C6660" stroke-opacity="0.3" stroke-width="2"/>
<rect x="148" y="106" width="167.33" height="12" rx="6" fill="#E0E4DE"/>
</g>
<g opacity="0.8" filter="url(#filter3_d_135_248)">
<rect width="366.66" height="48" transform="translate(116 148)" fill="white"/>
<rect x="133" y="163" width="18" height="18" rx="9" stroke="#3C6660" stroke-opacity="0.3" stroke-width="2"/>
<rect x="164" y="166" width="223.09" height="12" rx="6" fill="#E0E4DE"/>
</g>
<g opacity="0.6" filter="url(#filter4_d_135_248)">
<rect width="366.66" height="48" transform="translate(132 208)" fill="white"/>
<rect x="149" y="223" width="18" height="18" rx="9" stroke="#3C6660" stroke-opacity="0.3" stroke-width="2"/>
<rect x="180" y="226" width="111.55" height="12" rx="6" fill="#E0E4DE"/>
</g>
</g>
<rect x="20" y="408.66" width="180.81" height="94" rx="32" fill="white"/>
<rect x="20.5" y="409.16" width="179.81" height="93" rx="31.5" stroke="#AFB3AE" stroke-opacity="0.1"/>
<g filter="url(#filter5_dd_135_248)">
<rect x="20" y="408.66" width="180.81" height="94" rx="32" fill="white" fill-opacity="0.01" shape-rendering="crispEdges"/>
</g>
<path d="M54.825 464.96L62.5875 455.66H56.5875L57.675 447.148L50.7375 457.16H55.95L54.825 464.96ZM51 470.66L52.5 460.16H45L58.5 440.66H61.5L60 452.66H69L54 470.66H51Z" fill="#3C6660"/>
<path d="M81.7889 445.66V436.93H87.5333V438.414H83.5793V440.852H87.1476V442.311H83.5793V445.66H81.7889ZM93.8684 445.777C93.097 445.777 92.4034 445.601 91.7878 445.249C91.1722 444.898 90.6859 444.388 90.3288 443.72C89.9718 443.052 89.7933 442.246 89.7933 441.301C89.7933 440.35 89.9718 439.54 90.3288 438.871C90.6859 438.202 91.1722 437.692 91.7878 437.34C92.4034 436.988 93.097 436.812 93.8684 436.812C94.6398 436.812 95.3323 436.988 95.946 437.34C96.5597 437.692 97.0451 438.202 97.4023 438.871C97.7595 439.54 97.9381 440.35 97.9381 441.301C97.9381 442.248 97.7595 443.055 97.4023 443.723C97.0451 444.391 96.5597 444.9 95.946 445.251C95.3323 445.602 94.6398 445.777 93.8684 445.777ZM93.8684 444.189C94.3204 444.189 94.7152 444.078 95.0529 443.857C95.3905 443.635 95.6533 443.309 95.8412 442.879C96.0292 442.449 96.1231 441.923 96.1231 441.301C96.1231 440.673 96.0292 440.143 95.8412 439.712C95.6533 439.281 95.3905 438.954 95.0529 438.733C94.7152 438.511 94.3204 438.401 93.8684 438.401C93.4166 438.401 93.0215 438.512 92.683 438.734C92.3444 438.956 92.0807 439.283 91.8917 439.715C91.7027 440.146 91.6082 440.675 91.6082 441.301C91.6082 441.923 91.7027 442.448 91.8917 442.878C92.0807 443.307 92.3444 443.633 92.683 443.855C93.0215 444.078 93.4166 444.189 93.8684 444.189ZM104.293 445.777C103.519 445.777 102.827 445.601 102.215 445.249C101.604 444.898 101.122 444.388 100.769 443.72C100.416 443.052 100.239 442.246 100.239 441.301C100.239 440.35 100.417 439.54 100.774 438.871C101.13 438.202 101.614 437.692 102.226 437.34C102.839 436.988 103.528 436.812 104.293 436.812C104.789 436.812 105.251 436.882 105.68 437.02C106.108 437.158 106.488 437.361 106.82 437.627C107.151 437.892 107.423 438.218 107.635 438.602C107.847 438.986 107.986 439.423 108.052 439.915H106.242C106.201 439.675 106.125 439.462 106.015 439.276C105.904 439.089 105.766 438.931 105.598 438.8C105.431 438.669 105.24 438.569 105.026 438.502C104.812 438.434 104.58 438.401 104.331 438.401C103.877 438.401 103.479 438.514 103.136 438.74C102.793 438.967 102.527 439.296 102.338 439.727C102.149 440.159 102.054 440.683 102.054 441.301C102.054 441.929 102.15 442.458 102.343 442.889C102.535 443.319 102.801 443.643 103.142 443.862C103.482 444.08 103.877 444.189 104.324 444.189C104.574 444.189 104.805 444.155 105.018 444.086C105.231 444.018 105.423 443.919 105.592 443.789C105.761 443.659 105.902 443.5 106.015 443.312C106.127 443.125 106.205 442.912 106.248 442.675H108.058C108.009 443.08 107.888 443.468 107.696 443.838C107.504 444.209 107.247 444.54 106.925 444.832C106.603 445.125 106.222 445.355 105.781 445.524C105.34 445.693 104.844 445.777 104.293 445.777ZM114.158 445.782C113.436 445.782 112.805 445.648 112.264 445.382C111.723 445.116 111.303 444.743 111.004 444.265C110.704 443.787 110.555 443.231 110.555 442.598V436.93H112.345V442.45C112.345 442.789 112.421 443.091 112.571 443.354C112.722 443.617 112.933 443.823 113.204 443.974C113.475 444.125 113.793 444.2 114.158 444.2C114.524 444.2 114.843 444.125 115.115 443.974C115.386 443.823 115.596 443.617 115.746 443.354C115.896 443.091 115.971 442.789 115.971 442.45V436.93H117.761V442.598C117.761 443.231 117.611 443.787 117.311 444.265C117.011 444.743 116.59 445.116 116.05 445.382C115.51 445.648 114.879 445.782 114.158 445.782ZM123.741 445.787C123.043 445.787 122.435 445.68 121.917 445.465C121.399 445.25 120.996 444.932 120.707 444.511C120.417 444.09 120.264 443.57 120.245 442.951H121.986C122.009 443.245 122.096 443.491 122.249 443.688C122.401 443.885 122.605 444.033 122.859 444.131C123.114 444.229 123.401 444.278 123.722 444.278C124.041 444.278 124.319 444.232 124.556 444.139C124.794 444.046 124.978 443.915 125.11 443.747C125.242 443.579 125.308 443.385 125.308 443.165C125.308 442.964 125.249 442.796 125.131 442.662C125.013 442.527 124.842 442.412 124.618 442.315C124.394 442.219 124.123 442.133 123.804 442.058L122.845 441.819C122.106 441.639 121.527 441.356 121.107 440.971C120.688 440.586 120.479 440.077 120.479 439.441C120.479 438.916 120.621 438.455 120.906 438.061C121.19 437.666 121.58 437.36 122.074 437.141C122.568 436.922 123.131 436.812 123.764 436.812C124.41 436.812 124.973 436.923 125.453 437.144C125.934 437.365 126.308 437.671 126.577 438.063C126.845 438.455 126.984 438.906 126.993 439.417H125.264C125.23 439.068 125.081 438.797 124.815 438.604C124.549 438.412 124.193 438.316 123.747 438.316C123.444 438.316 123.185 438.359 122.971 438.446C122.756 438.534 122.593 438.654 122.481 438.806C122.369 438.959 122.313 439.133 122.313 439.329C122.313 439.543 122.378 439.72 122.508 439.861C122.639 440.003 122.811 440.118 123.024 440.206C123.237 440.295 123.466 440.369 123.711 440.427L124.499 440.62C124.866 440.704 125.208 440.816 125.525 440.957C125.842 441.098 126.119 441.271 126.357 441.476C126.595 441.681 126.78 441.923 126.912 442.204C127.044 442.484 127.11 442.807 127.11 443.174C127.11 443.703 126.977 444.164 126.71 444.556C126.443 444.948 126.058 445.251 125.556 445.466C125.054 445.68 124.449 445.787 123.741 445.787ZM133.637 445.66V436.93H135.428V444.176H139.192V445.66H133.637ZM141.622 445.66V436.93H147.468V438.414H143.413V440.521H147.159V441.98H143.413V444.176H147.48V445.66H141.622ZM152.667 445.66L149.608 436.93H151.597L152.993 441.141C153.16 441.674 153.329 442.26 153.501 442.898C153.673 443.537 153.854 444.234 154.043 444.99H153.659C153.845 444.225 154.02 443.526 154.184 442.892C154.349 442.258 154.512 441.674 154.672 441.141L156.022 436.93H157.997L155.004 445.66H152.667ZM160.271 445.66V436.93H166.116V438.414H162.061V440.521H165.807V441.98H162.061V444.176H166.128V445.66H160.271ZM168.76 445.66V436.93H170.55V444.176H174.315V445.66H168.76Z" fill="#5C605C"/>
<path d="M87.05 456.977C87.9911 456.977 88.8375 457.199 89.5892 457.643C90.3408 458.088 90.9361 458.703 91.375 459.488C91.8139 460.272 92.0333 461.174 92.0333 462.193V466.577C92.0333 467.668 91.8142 468.617 91.3758 469.424C90.9375 470.231 90.3244 470.856 89.5367 471.298C88.7489 471.739 87.8311 471.96 86.7833 471.96C86.0533 471.96 85.3647 471.836 84.7175 471.587C84.0703 471.339 83.49 470.952 82.9767 470.427L84.7133 468.74C84.97 469.038 85.2808 469.273 85.6458 469.445C86.0108 469.617 86.39 469.703 86.7833 469.703C87.3422 469.703 87.8311 469.571 88.25 469.308C88.6689 469.044 88.9948 468.699 89.2275 468.274C89.4603 467.849 89.5767 467.394 89.5767 466.91V464.52L90.0134 465C89.6045 465.48 89.1098 465.854 88.5292 466.123C87.9486 466.392 87.3389 466.527 86.7 466.527C85.7978 466.527 84.9986 466.321 84.3025 465.91C83.6064 465.499 83.0597 464.938 82.6625 464.228C82.2653 463.518 82.0667 462.712 82.0667 461.81C82.0667 460.908 82.2945 460.092 82.75 459.363C83.2056 458.633 83.8106 458.053 84.565 457.623C85.3194 457.192 86.1478 456.977 87.05 456.977ZM87.05 459.283C86.5833 459.283 86.1569 459.396 85.7708 459.622C85.3847 459.847 85.0775 460.152 84.8491 460.535C84.6208 460.918 84.5066 461.343 84.5066 461.81C84.5066 462.277 84.6194 462.703 84.845 463.089C85.0705 463.475 85.375 463.783 85.7583 464.011C86.1417 464.239 86.5667 464.353 87.0333 464.353C87.5 464.353 87.9264 464.239 88.3125 464.011C88.6986 463.783 89.0059 463.475 89.2342 463.089C89.4625 462.703 89.5767 462.277 89.5767 461.81C89.5767 461.354 89.4639 460.935 89.2384 460.552C89.0128 460.168 88.7084 459.861 88.325 459.63C87.9417 459.399 87.5167 459.283 87.05 459.283ZM99.5433 471.96C98.5878 471.96 97.74 471.766 97 471.379C96.26 470.992 95.68 470.456 95.26 469.771C94.84 469.086 94.63 468.299 94.63 467.41C94.63 466.617 94.8128 465.88 95.1783 465.201C95.5439 464.521 96.08 463.977 96.7867 463.567L96.7367 464.343C96.1867 463.919 95.7597 463.432 95.4558 462.883C95.1519 462.333 95 461.717 95 461.033C95 460.208 95.1944 459.49 95.5833 458.881C95.9722 458.271 96.5078 457.799 97.19 457.463C97.8722 457.128 98.6567 456.96 99.5433 456.96C100.43 456.96 101.214 457.128 101.897 457.463C102.579 457.799 103.114 458.271 103.503 458.881C103.892 459.49 104.087 460.208 104.087 461.033C104.087 461.717 103.943 462.331 103.656 462.877C103.369 463.422 102.93 463.916 102.34 464.357L102.327 463.583C103.023 463.971 103.556 464.508 103.924 465.193C104.292 465.878 104.477 466.617 104.477 467.41C104.477 468.299 104.265 469.086 103.842 469.771C103.418 470.456 102.835 470.992 102.092 471.379C101.348 471.766 100.499 471.96 99.5433 471.96ZM99.5433 469.687C100.25 469.687 100.824 469.494 101.265 469.108C101.706 468.723 101.927 468.157 101.927 467.41C101.927 466.666 101.707 466.097 101.268 465.705C100.828 465.313 100.253 465.117 99.5433 465.117C98.8333 465.117 98.2614 465.313 97.8275 465.705C97.3936 466.097 97.1766 466.666 97.1766 467.41C97.1766 468.157 97.3944 468.723 97.83 469.108C98.2655 469.494 98.8366 469.687 99.5433 469.687ZM99.5433 462.827C100.133 462.827 100.613 462.679 100.983 462.385C101.352 462.091 101.537 461.64 101.537 461.033C101.537 460.427 101.352 459.974 100.983 459.675C100.613 459.376 100.133 459.227 99.5433 459.227C98.9533 459.227 98.4736 459.376 98.1041 459.675C97.7347 459.974 97.55 460.427 97.55 461.033C97.55 461.64 97.7347 462.091 98.1041 462.385C98.4736 462.679 98.9533 462.827 99.5433 462.827ZM109.08 471.66L107.48 470.06L120.287 457.26L121.887 458.873L109.08 471.66ZM118.887 471.96C118.227 471.96 117.625 471.798 117.082 471.475C116.538 471.152 116.103 470.718 115.777 470.175C115.45 469.632 115.287 469.027 115.287 468.36C115.287 467.707 115.453 467.107 115.787 466.56C116.12 466.013 116.56 465.577 117.107 465.25C117.653 464.923 118.247 464.76 118.887 464.76C119.547 464.76 120.15 464.922 120.697 465.245C121.243 465.568 121.678 466.002 122.002 466.545C122.325 467.088 122.487 467.693 122.487 468.36C122.487 469.027 122.325 469.632 122.002 470.175C121.678 470.718 121.243 471.152 120.697 471.475C120.15 471.798 119.547 471.96 118.887 471.96ZM118.885 469.903C119.164 469.903 119.42 469.833 119.654 469.691C119.888 469.549 120.076 469.362 120.218 469.128C120.359 468.894 120.43 468.639 120.43 468.36C120.43 468.082 120.359 467.826 120.218 467.592C120.076 467.359 119.888 467.171 119.655 467.029C119.421 466.887 119.165 466.817 118.887 466.817C118.609 466.817 118.353 466.887 118.12 467.029C117.887 467.171 117.699 467.358 117.557 467.592C117.414 467.826 117.343 468.081 117.343 468.36C117.343 468.638 117.414 468.894 117.557 469.128C117.699 469.361 117.886 469.549 118.118 469.691C118.351 469.833 118.606 469.903 118.885 469.903ZM110.48 464.16C109.82 464.16 109.217 463.998 108.67 463.675C108.123 463.352 107.688 462.918 107.365 462.375C107.042 461.832 106.88 461.227 106.88 460.56C106.88 459.907 107.047 459.307 107.38 458.76C107.713 458.213 108.153 457.777 108.7 457.45C109.247 457.123 109.84 456.96 110.48 456.96C111.14 456.96 111.742 457.122 112.285 457.445C112.828 457.768 113.263 458.202 113.59 458.745C113.917 459.288 114.08 459.893 114.08 460.56C114.08 461.227 113.917 461.832 113.59 462.375C113.263 462.918 112.828 463.352 112.285 463.675C111.742 463.998 111.14 464.16 110.48 464.16ZM110.478 462.103C110.757 462.103 111.014 462.033 111.248 461.891C111.481 461.749 111.669 461.562 111.811 461.328C111.953 461.094 112.023 460.839 112.023 460.56C112.023 460.282 111.953 460.026 111.811 459.792C111.669 459.559 111.482 459.371 111.248 459.229C111.014 459.087 110.759 459.017 110.48 459.017C110.202 459.017 109.947 459.087 109.713 459.229C109.48 459.371 109.292 459.558 109.15 459.792C109.008 460.026 108.937 460.281 108.937 460.56C108.937 460.838 109.008 461.094 109.15 461.328C109.292 461.561 109.479 461.749 109.712 461.891C109.944 462.033 110.2 462.103 110.478 462.103ZM129.09 471.66V457.26H135.04C135.18 457.26 135.361 457.265 135.582 457.275C135.804 457.285 136.008 457.307 136.193 457.34C137.026 457.469 137.713 457.747 138.257 458.174C138.8 458.601 139.203 459.139 139.466 459.787C139.729 460.434 139.86 461.154 139.86 461.947C139.86 462.739 139.727 463.459 139.462 464.107C139.196 464.754 138.792 465.292 138.248 465.719C137.705 466.146 137.02 466.424 136.193 466.553C136.008 466.58 135.803 466.6 135.578 466.613C135.354 466.627 135.174 466.633 135.04 466.633H131.497V471.66H129.09ZM131.497 464.377H134.94C135.076 464.377 135.226 464.37 135.391 464.357C135.556 464.343 135.71 464.318 135.853 464.28C136.251 464.179 136.565 464.002 136.794 463.749C137.024 463.496 137.186 463.209 137.283 462.888C137.379 462.567 137.427 462.253 137.427 461.947C137.427 461.64 137.379 461.326 137.283 461.005C137.186 460.684 137.024 460.397 136.794 460.144C136.565 459.891 136.251 459.714 135.853 459.613C135.71 459.574 135.556 459.549 135.391 459.536C135.226 459.523 135.076 459.517 134.94 459.517H131.497V464.377ZM146.597 471.96C145.504 471.96 144.546 471.723 143.72 471.249C142.894 470.775 142.25 470.119 141.786 469.279C141.322 468.44 141.09 467.472 141.09 466.377C141.09 465.197 141.318 464.172 141.772 463.302C142.227 462.432 142.858 461.757 143.664 461.278C144.47 460.799 145.403 460.56 146.463 460.56C147.58 460.56 148.53 460.821 149.313 461.343C150.097 461.866 150.679 462.603 151.061 463.557C151.442 464.51 151.586 465.636 151.492 466.933H149.1V466.053C149.093 464.878 148.887 464.019 148.48 463.478C148.073 462.937 147.434 462.667 146.563 462.667C145.578 462.667 144.844 462.972 144.362 463.583C143.881 464.194 143.64 465.087 143.64 466.26C143.64 467.356 143.881 468.203 144.362 468.803C144.844 469.403 145.544 469.703 146.463 469.703C147.057 469.703 147.568 469.571 147.997 469.307C148.426 469.042 148.757 468.661 148.99 468.163L151.373 468.88C150.961 469.856 150.322 470.613 149.457 471.152C148.592 471.691 147.639 471.96 146.597 471.96ZM142.88 466.933V465.11H150.313V466.933H142.88ZM156.553 471.96C155.769 471.96 155.107 471.812 154.567 471.516C154.028 471.22 153.62 470.825 153.344 470.331C153.068 469.837 152.93 469.293 152.93 468.7C152.93 468.178 153.017 467.71 153.191 467.296C153.365 466.882 153.632 466.523 153.993 466.219C154.353 465.915 154.818 465.666 155.387 465.47C155.824 465.327 156.334 465.2 156.914 465.089C157.495 464.979 158.127 464.875 158.812 464.778C159.496 464.68 160.213 464.576 160.963 464.463L160.097 464.947C160.102 464.201 159.936 463.651 159.598 463.297C159.259 462.944 158.686 462.767 157.877 462.767C157.392 462.767 156.924 462.881 156.471 463.109C156.018 463.337 155.701 463.727 155.52 464.277L153.317 463.587C153.584 462.676 154.094 461.943 154.846 461.39C155.597 460.837 156.61 460.56 157.883 460.56C158.844 460.56 159.689 460.716 160.417 461.028C161.144 461.341 161.687 461.854 162.043 462.57C162.237 462.948 162.353 463.335 162.393 463.732C162.433 464.128 162.453 464.562 162.453 465.033V471.66H160.34V469.317L160.69 469.703C160.203 470.48 159.635 471.05 158.984 471.414C158.334 471.778 157.523 471.96 156.553 471.96ZM157.03 470.037C157.577 470.037 158.043 469.94 158.428 469.746C158.814 469.552 159.122 469.316 159.353 469.039C159.584 468.762 159.739 468.498 159.817 468.247C159.942 467.94 160.015 467.589 160.034 467.192C160.054 466.796 160.063 466.474 160.063 466.227L160.803 466.45C160.072 466.567 159.446 466.667 158.926 466.752C158.405 466.836 157.959 466.916 157.588 466.992C157.217 467.069 156.888 467.154 156.6 467.25C156.323 467.352 156.088 467.469 155.894 467.601C155.7 467.732 155.552 467.886 155.448 468.06C155.345 468.234 155.293 468.438 155.293 468.67C155.293 468.933 155.359 469.168 155.491 469.374C155.622 469.58 155.817 469.742 156.074 469.86C156.331 469.978 156.65 470.037 157.03 470.037ZM165.033 471.66L165.05 457.26H167.49V466.06L171.44 460.86H174.45L170.26 466.26L174.81 471.66H171.62L167.49 466.46V471.66H165.033Z" fill="#3C6660"/>
<defs>
<clipPath id="bgblur_0_135_248_clip_path" transform="translate(-56 -12)"><rect x="76" y="32" width="414.667" height="414.667" rx="32"/>
</clipPath><filter id="filter1_d_135_248" x="38" y="19" width="490.66" height="490.66" filterUnits="userSpaceOnUse" color-interpolation-filters="sRGB">
<feFlood flood-opacity="0" result="BackgroundImageFix"/>
<feColorMatrix in="SourceAlpha" type="matrix" values="0 0 0 0 0 0 0 0 0 0 0 0 0 0 0 0 0 0 127 0" result="hardAlpha"/>
<feMorphology radius="12" operator="erode" in="SourceAlpha" result="effect1_dropShadow_135_248"/>
<feOffset dy="25"/>
<feGaussianBlur stdDeviation="25"/>
<feComposite in2="hardAlpha" operator="out"/>
<feColorMatrix type="matrix" values="0 0 0 0 0 0 0 0 0 0 0 0 0 0 0 0 0 0 0.25 0"/>
<feBlend mode="normal" in2="BackgroundImageFix" result="effect1_dropShadow_135_248"/>
<feBlend mode="normal" in="SourceGraphic" in2="effect1_dropShadow_135_248" result="shape"/>
</filter>
<filter id="filter2_d_135_248" x="98" y="87" width="370.66" height="52" filterUnits="userSpaceOnUse" color-interpolation-filters="sRGB">
<feFlood flood-opacity="0" result="BackgroundImageFix"/>
<feColorMatrix in="SourceAlpha" type="matrix" values="0 0 0 0 0 0 0 0 0 0 0 0 0 0 0 0 0 0 127 0" result="hardAlpha"/>
<feOffset dy="1"/>
<feGaussianBlur stdDeviation="1"/>
<feComposite in2="hardAlpha" operator="out"/>
<feColorMatrix type="matrix" values="0 0 0 0 0 0 0 0 0 0 0 0 0 0 0 0 0 0 0.05 0"/>
<feBlend mode="normal" in2="BackgroundImageFix" result="effect1_dropShadow_135_248"/>
<feBlend mode="normal" in="SourceGraphic" in2="effect1_dropShadow_135_248" result="shape"/>
</filter>
<filter id="filter3_d_135_248" x="114" y="147" width="370.66" height="52" filterUnits="userSpaceOnUse" color-interpolation-filters="sRGB">
<feFlood flood-opacity="0" result="BackgroundImageFix"/>
<feColorMatrix in="SourceAlpha" type="matrix" values="0 0 0 0 0 0 0 0 0 0 0 0 0 0 0 0 0 0 127 0" result="hardAlpha"/>
<feOffset dy="1"/>
<feGaussianBlur stdDeviation="1"/>
<feComposite in2="hardAlpha" operator="out"/>
<feColorMatrix type="matrix" values="0 0 0 0 0 0 0 0 0 0 0 0 0 0 0 0 0 0 0.05 0"/>
<feBlend mode="normal" in2="BackgroundImageFix" result="effect1_dropShadow_135_248"/>
<feBlend mode="normal" in="SourceGraphic" in2="effect1_dropShadow_135_248" result="shape"/>
</filter>
<filter id="filter4_d_135_248" x="130" y="207" width="370.66" height="52" filterUnits="userSpaceOnUse" color-interpolation-filters="sRGB">
<feFlood flood-opacity="0" result="BackgroundImageFix"/>
<feColorMatrix in="SourceAlpha" type="matrix" values="0 0 0 0 0 0 0 0 0 0 0 0 0 0 0 0 0 0 127 0" result="hardAlpha"/>
<feOffset dy="1"/>
<feGaussianBlur stdDeviation="1"/>
<feComposite in2="hardAlpha" operator="out"/>
<feColorMatrix type="matrix" values="0 0 0 0 0 0 0 0 0 0 0 0 0 0 0 0 0 0 0.05 0"/>
<feBlend mode="normal" in2="BackgroundImageFix" result="effect1_dropShadow_135_248"/>
<feBlend mode="normal" in="SourceGraphic" in2="effect1_dropShadow_135_248" result="shape"/>
</filter>
<filter id="filter5_dd_135_248" x="0" y="408.66" width="220.81" height="134" filterUnits="userSpaceOnUse" color-interpolation-filters="sRGB">
<feFlood flood-opacity="0" result="BackgroundImageFix"/>
<feColorMatrix in="SourceAlpha" type="matrix" values="0 0 0 0 0 0 0 0 0 0 0 0 0 0 0 0 0 0 127 0" result="hardAlpha"/>
<feMorphology radius="6" operator="erode" in="SourceAlpha" result="effect1_dropShadow_135_248"/>
<feOffset dy="8"/>
<feGaussianBlur stdDeviation="5"/>
<feComposite in2="hardAlpha" operator="out"/>
<feColorMatrix type="matrix" values="0 0 0 0 0 0 0 0 0 0 0 0 0 0 0 0 0 0 0.1 0"/>
<feBlend mode="normal" in2="BackgroundImageFix" result="effect1_dropShadow_135_248"/>
<feColorMatrix in="SourceAlpha" type="matrix" values="0 0 0 0 0 0 0 0 0 0 0 0 0 0 0 0 0 0 127 0" result="hardAlpha"/>
<feMorphology radius="5" operator="erode" in="SourceAlpha" result="effect2_dropShadow_135_248"/>
<feOffset dy="20"/>
<feGaussianBlur stdDeviation="12.5"/>
<feComposite in2="hardAlpha" operator="out"/>
<feColorMatrix type="matrix" values="0 0 0 0 0 0 0 0 0 0 0 0 0 0 0 0 0 0 0.1 0"/>
<feBlend mode="normal" in2="effect1_dropShadow_135_248" result="effect2_dropShadow_135_248"/>
<feBlend mode="normal" in="SourceGraphic" in2="effect2_dropShadow_135_248" result="shape"/>
</filter>
<linearGradient id="paint0_linear_135_248" x1="44" y1="0" x2="522.667" y2="478.667" gradientUnits="userSpaceOnUse">
<stop stop-color="#BFEBE4"/>
<stop offset="1" stop-color="#C4E8F6"/>
</linearGradient>
</defs>
</svg>
