<svg width="45" height="45" viewBox="0 0 45 45" xmlns="http://www.w3.org/2000/svg">
  <path 
    d="M5 45C3.625 45 2.44792 44.5104 1.46875 43.5312C0.489583 42.5521 0 41.375 0 40V30H5V40H15V45H5ZM30 45V40H40V30H45V40C45 41.375 44.5104 42.5521 43.5312 43.5312C42.5521 44.5104 41.375 45 40 45H30ZM0 15V5C0 3.625 0.489583 2.44792 1.46875 1.46875C2.44792 0.489583 3.625 0 5 0H15V5H5V15H0ZM40 15V5H30V0H40C41.375 0 42.5521 0.489583 43.5312 1.46875C44.5104 2.44792 45 3.625 45 5V15H40Z" 
    fill="#9CA3AF"
    opacity="0.4"
  />
</svg>