<svg width="12" height="15" viewBox="0 0 12 15" fill="none" xmlns="http://www.w3.org/2000/svg">
<path d="M6 10.5C7.275 9.35 8.09375 8.54062 8.45625 8.07187C8.81875 7.60312 9 7.1375 9 6.675C9 6.225 8.8375 5.8375 8.5125 5.5125C8.1875 5.1875 7.8 5.025 7.35 5.025C7.0875 5.025 6.83437 5.07812 6.59062 5.18437C6.34687 5.29062 6.15 5.4375 6 5.625C5.85 5.4375 5.65625 5.29062 5.41875 5.18437C5.18125 5.07812 4.925 5.025 4.65 5.025C4.2 5.025 3.8125 5.1875 3.4875 5.5125C3.1625 5.8375 3 6.225 3 6.675C3 6.9125 3.03125 7.13125 3.09375 7.33125C3.15625 7.53125 3.29375 7.76562 3.50625 8.03438C3.71875 8.30313 4.02187 8.63125 4.41563 9.01875C4.80938 9.40625 5.3375 9.9 6 10.5ZM6 15C4.2625 14.5625 2.82812 13.5656 1.69687 12.0094C0.565625 10.4531 0 8.725 0 6.825V2.25L6 0L12 2.25V6.825C12 8.725 11.4344 10.4531 10.3031 12.0094C9.17188 13.5656 7.7375 14.5625 6 15Z" fill="#305954"/>
</svg>
